<svg id="Layer_1" data-name="Layer 1" xmlns="http://www.w3.org/2000/svg" viewBox="0 0 1256.17 409.45"><defs><style>.cls-1{fill:#add8e6;stroke:#add8e6;stroke-miterlimit:10;stroke-width:15px;}.cls-2{fill:#98fb98;}</style></defs><path class="cls-1" d="M406.39,29,326.57,320.77H294L227,79.6,163.93,320.77H131.31L47.2,31.11,80.67,26l67.38,248.47L211.13,29h33l66.09,245.47L373.77,29Z" transform="translate(-37.62 -17.53)"/><path class="cls-1" d="M459.76,320.77V112.93h34.33V320.77Z" transform="translate(-37.62 -17.53)"/><path class="cls-1" d="M606.78,320.77h-33.9V112.64H598.2l5.58,29.61a125.09,125.09,0,0,1,36.9-25.74q21.9-10.31,41.63-10.3,33,0,49.14,20t16.09,53.43V320.34h-33.9v-136q0-23.17-8.59-36.05T676.3,135.39q-15.45,0-35,10.73a135,135,0,0,0-34.55,27Z" transform="translate(-37.62 -17.53)"/><path class="cls-1" d="M993,112.64V343.52q0,21.89-11.16,39.05t-32.61,27q-21.47,9.87-50.21,9.87-14.6,0-37.12-5.36t-35.4-13.52l10.29-24.89a197.82,197.82,0,0,0,29.83,12q13.08,3.86,31.11,3.86,27,0,44-12.44t16.95-36.05v-33a101.41,101.41,0,0,1-24.68,12,78.26,78.26,0,0,1-24.24,4.29q-46.35,0-72.74-30.25t-26.39-80.46q0-31.75,12.23-56.43a91.44,91.44,0,0,1,34.76-38.41q22.53-13.72,53-13.73,12.87,0,27.46,5.57a109.67,109.67,0,0,1,27,15l7.29-15Zm-56.43,180a69,69,0,0,0,22.1-15.24V154.27q-20.59-18.45-48.92-18.45-30.9,0-47.64,22.1T845,215.21q0,37.33,16.52,59.86t47.85,22.53Q924.77,297.6,936.57,292.67Z" transform="translate(-37.62 -17.53)"/><path class="cls-1" d="M1072.93,320.77V112.64h34.33V320.77Z" transform="translate(-37.62 -17.53)"/><path class="cls-1" d="M1266.35,116.08l11.15,25.75h-48.92V262q0,16.74,7.3,26.18t22.31,9.44q8.14,0,18.88-4.29l7.73,26.61a73.67,73.67,0,0,1-31.76,7.29q-27,0-42.7-15.66t-15.66-44.85V141.83h-30l-.43-25.75h30.47V62.86l33.9-9.44v62.66Z" transform="translate(-37.62 -17.53)"/><path class="cls-2" d="M478.81,61.65c-2.15,2.07-4.26,4.08-6.31,6.13a1.37,1.37,0,0,0-.2,1.1c.46,2.32,1,4.62,1.46,6.93a5.17,5.17,0,0,1-4.4,6.16,3.66,3.66,0,0,1-2.4-.85,16.37,16.37,0,0,1-3.14-3.36A45.81,45.81,0,0,0,452.06,66c-.86-.63-1.68-1.3-2.5-2a3.25,3.25,0,0,1-1.16-3.76c.89-2.85,4.05-4.65,6.25-4s4.31,1.09,6.47,1.58a1.44,1.44,0,0,0,1.12-.12c2.15-2.05,4.26-4.15,6.46-6.32l-5.36-4.38c-2-1.65-4-3.28-6-5s-3.38-3.41-3.22-6.1c.26-4.28,5.24-7.74,9.58-6.42,3.69,1.12,7.27,2.58,10.9,3.91,2.69,1,5.38,2,8.06,3a1.06,1.06,0,0,0,1.33-.3c3.12-3.17,6.25-6.33,9.43-9.45a7.48,7.48,0,0,1,7-2.1,6.28,6.28,0,0,1,5,8.17,9.56,9.56,0,0,1-2.6,4.23c-3,3-5.93,6-8.92,8.94a1.19,1.19,0,0,0-.33,1.5q3.44,9.12,6.77,18.26A7.8,7.8,0,0,1,494.43,76a4.82,4.82,0,0,1-3.72-.82,18.41,18.41,0,0,1-3.17-2.87C484.55,68.75,481.67,65.14,478.81,61.65Z" transform="translate(-37.62 -17.53)"/><path class="cls-2" d="M1092,61.65c-2.15,2.07-4.26,4.08-6.32,6.13a1.4,1.4,0,0,0-.19,1.1c.46,2.32,1,4.62,1.46,6.93a5.17,5.17,0,0,1-4.4,6.16,3.64,3.64,0,0,1-2.4-.85,16.37,16.37,0,0,1-3.14-3.36A45.81,45.81,0,0,0,1065.23,66c-.86-.63-1.68-1.3-2.5-2a3.25,3.25,0,0,1-1.16-3.76c.88-2.85,4-4.65,6.25-4s4.31,1.09,6.47,1.58a1.44,1.44,0,0,0,1.12-.12c2.15-2.05,4.25-4.15,6.46-6.32l-5.36-4.38c-2-1.65-4-3.28-6-5s-3.38-3.41-3.21-6.1c.26-4.28,5.24-7.74,9.58-6.42,3.69,1.12,7.27,2.58,10.89,3.91,2.7,1,5.39,2,8.06,3a1.07,1.07,0,0,0,1.34-.3c3.12-3.17,6.25-6.33,9.43-9.45a7.47,7.47,0,0,1,7-2.1,6.28,6.28,0,0,1,5,8.17,9.56,9.56,0,0,1-2.6,4.23c-3,3-5.93,6-8.92,8.94a1.18,1.18,0,0,0-.33,1.5c2.28,6.08,4.56,12.16,6.77,18.26A7.8,7.8,0,0,1,1107.59,76a4.8,4.8,0,0,1-3.71-.82,18.41,18.41,0,0,1-3.17-2.87C1097.72,68.75,1094.84,65.14,1092,61.65Z" transform="translate(-37.62 -17.53)"/></svg>